<svg width="256" height="256" viewBox="0 0 256 256" xmlns="http://www.w3.org/2000/svg">
  <defs>
    <!-- Background gradient -->
    <radialGradient id="bgGradient" cx="50%" cy="30%" r="70%">
      <stop offset="0%" style="stop-color:#3b82f6"/>
      <stop offset="100%" style="stop-color:#1e40af"/>
    </radialGradient>
    
    <!-- Drop shadow -->
    <filter id="shadow" x="-20%" y="-20%" width="140%" height="140%">
      <feDropShadow dx="2" dy="4" stdDeviation="3" flood-color="rgba(0,0,0,0.3)"/>
    </filter>
  </defs>
  
  <!-- Outer shadow circle -->
  <circle cx="128" cy="128" r="120" fill="rgba(0,0,0,0.1)"/>
  
  <!-- Main background circle -->
  <circle cx="128" cy="128" r="116" fill="url(#bgGradient)" filter="url(#shadow)"/>
  
  <!-- Inner highlight -->
  <circle cx="128" cy="128" r="116" fill="none" stroke="rgba(255,255,255,0.2)" stroke-width="2"/>
  
  <!-- Brain icon (scaled up and centered) -->
  <g transform="translate(128,128) scale(4.5,4.5)" stroke="white" stroke-width="2.2" stroke-linecap="round" stroke-linejoin="round" fill="none">
    <!-- Main vertical line -->
    <path d="M0 6V-7"/>
    
    <!-- Top brain curves -->
    <path d="M3 1a4.17 4.17 0 0 1-3-4 4.17 4.17 0 0 1-3 4"/>
    
    <!-- Upper brain outline -->
    <path d="M5.598-5.5A3 3 0 1 0 0-7a3 3 0 1 0-5.598 1.5"/>
    
    <!-- Right side curves -->
    <path d="M5.997-6.875a4 4 0 0 1 2.526 5.77"/>
    <path d="M6 6a4 4 0 0 0 2-7.464"/>
    
    <!-- Bottom brain outline -->
    <path d="M7.967 5.483A4 4 0 1 1 0 6a4 4 0 1 1-7.967-.517"/>
    
    <!-- Left side curves -->
    <path d="M-6 6a4 4 0 0 1-2-7.464"/>
    <path d="M-5.997-6.875a4 4 0 0 0-2.526 5.77"/>
  </g>
  
  <!-- Subtle outer border -->
  <circle cx="128" cy="128" r="116" fill="none" stroke="rgba(255,255,255,0.3)" stroke-width="1"/>
</svg>